# xmcd
#
# Track frame offsets:
#	150
#	7327
#	13322
#	21277
#	28110
#	32247
#	37647
#	42952
#	64117
#	67322
#	74392
#	79547
#	84212
#	88477
#	91770
#	94195
#	97075
#	106430
#	109267
#	113692
#	127525
#	132490
#	137290
#	142130
#	147362
#	154462
#	166035
#	169710
#	173430
#
# Disc length: 2433 seconds
#
# Revision: 1
# Processed by: cddbd v1.5.1PL0 Copyright (c) Steve Scherf et al.
# Submitted via: CDex 1.50Beta5
#
DISCID=8a097f1d
DTITLE=ビデオ・サントラ - 菜々子解体診書 オリジナルサウンドトラック音楽的超療法1
DYEAR=1999
DGENRE=
TTITLE0=オープニングテーマ I
TTITLE1=ペンタゴン’99
TTITLE2=菜々子のテーマ
TTITLE3=九龍&コマネチのテーマ
TTITLE4=セイントのテーマ
TTITLE5=お買い物ドライブ
TTITLE6=First Spiral,The
TTITLE7=グリーンのテーマ
TTITLE8=愛のカルテ
TTITLE9=オープニングテーマ II
TTITLE10=その時 菜々子は…
TTITLE11=そして 菜々子は…
TTITLE12=バチカン’99
TTITLE13=結局 菜々子に…
TTITLE14=センチメンタル
TTITLE15=Memories of…
TTITLE16=はぐれ熊のテーマ
TTITLE17=優雅な晩餐
TTITLE18=Psycho palient
TTITLE19=灰土のテーマ
TTITLE20=SYNCHRONIZE
TTITLE21=Blind faiths
TTITLE22=やはり 菜々子は…
TTITLE23=Gルームへの道
TTITLE24=攻撃の予兆
TTITLE25=アクション G
TTITLE26=灰土捕獲作戦
TTITLE27=まったりアダルト大作戦
TTITLE28=菜々子の選択
EXTD=
EXTT0=
EXTT1=
EXTT2=
EXTT3=
EXTT4=
EXTT5=
EXTT6=
EXTT7=
EXTT8=
EXTT9=
EXTT10=
EXTT11=
EXTT12=
EXTT13=
EXTT14=
EXTT15=
EXTT16=
EXTT17=
EXTT18=
EXTT19=
EXTT20=
EXTT21=
EXTT22=
EXTT23=
EXTT24=
EXTT25=
EXTT26=
EXTT27=
EXTT28=
PLAYORDER=
